<?xml version="1.0" standalone="no"?>
<!DOCTYPE svg PUBLIC "-//W3C//DTD SVG 20010904//EN"
 "http://www.w3.org/TR/2001/REC-SVG-20010904/DTD/svg10.dtd">
<svg version="1.0" xmlns="http://www.w3.org/2000/svg"
 width="300.000000pt" height="185.000000pt" viewBox="0 0 300.000000 185.000000"
 preserveAspectRatio="xMidYMid meet">
<metadata>
Created by potrace 1.10, written by Peter Selinger 2001-2011
</metadata>
<g transform="translate(0.000000,185.000000) scale(0.100000,-0.100000)"
fill="#000000" stroke="none">
<path d="M862 1674 c-180 -48 -421 -196 -548 -337 -98 -108 -159 -236 -184
-383 -23 -141 -12 -554 16 -554 7 0 43 46 80 101 118 180 230 269 338 269 68
0 105 -30 152 -125 20 -41 39 -75 42 -75 2 0 34 20 71 44 87 57 117 66 222 66
108 0 123 -4 107 -33 -9 -17 -7 -24 12 -39 12 -10 30 -18 40 -18 40 0 31 -132
-15 -201 l-23 -36 24 -41 c25 -41 61 -61 84 -47 8 5 6 14 -7 28 -10 12 -3 9
14 -7 34 -30 60 -28 43 3 -7 15 -6 18 7 17 27 -2 26 22 -2 50 -24 24 -25 29
-14 56 15 36 65 76 107 84 30 6 32 10 32 47 0 22 -6 56 -12 75 -11 30 -11 35
7 48 24 18 106 18 130 0 18 -13 18 -18 7 -48 -6 -19 -12 -53 -12 -75 0 -37 2
-41 32 -47 42 -8 92 -48 107 -84 11 -27 10 -32 -14 -56 -29 -29 -29 -53 1 -48
15 3 17 1 7 -9 -16 -16 -17 -39 -1 -39 7 0 26 12 42 28 17 15 23 18 13 6 -35
-42 19 -48 58 -6 36 38 41 66 17 104 -45 73 -52 198 -12 198 10 0 28 8 40 18
19 15 21 22 12 39 -16 29 -1 33 111 33 101 0 154 -18 243 -82 24 -17 46 -29
48 -27 1 2 20 37 41 77 49 95 82 122 145 122 59 0 109 -20 176 -70 54 -40 152
-162 201 -249 46 -84 59 -71 68 67 26 403 -11 591 -150 772 -108 140 -328 293
-525 366 -101 37 -215 39 -277 7 -56 -30 -61 -42 -30 -69 37 -31 67 -84 67
-116 0 -34 -41 -83 -91 -108 -42 -22 -103 -26 -144 -10 -22 8 -32 6 -55 -10
-15 -11 -31 -20 -34 -20 -13 0 -5 24 18 51 32 38 52 124 37 162 -14 35 -26 34
-48 -3 -9 -16 -20 -30 -23 -30 -4 0 -12 22 -19 50 -19 76 -78 118 -146 106
-42 -8 -82 -54 -97 -112 -7 -24 -15 -44 -18 -44 -3 0 -14 14 -23 30 -22 37
-34 38 -48 3 -19 -51 -3 -108 53 -185 19 -27 2 -32 -31 -9 -24 17 -34 19 -56
11 -68 -26 -158 0 -209 60 -45 54 -31 112 44 176 21 18 22 24 11 37 -19 24
-116 57 -164 56 -23 0 -66 -7 -95 -15z m609 -260 c12 -14 11 -16 -5 -13 -11 2
-21 10 -24 17 -5 17 13 15 29 -4z m129 2 c0 -7 -9 -16 -20 -19 -25 -6 -26 1
-2 19 22 17 22 17 22 0z m-130 -146 c5 0 12 9 15 20 4 14 15 20 35 20 20 0 31
-6 35 -20 9 -28 22 -25 39 8 l15 27 1 -26 c0 -33 -19 -89 -31 -89 -5 0 -9 7
-9 15 0 22 -16 18 -35 -7 l-16 -23 -16 23 c-18 25 -33 29 -33 7 0 -8 -4 -15
-9 -15 -12 0 -31 56 -31 89 l1 26 15 -27 c8 -16 19 -28 24 -28z"/>
</g>
</svg>
